<?xml version="1.0" standalone="no"?><!DOCTYPE svg PUBLIC "-//W3C//DTD SVG 1.1//EN" "http://www.w3.org/Graphics/SVG/1.1/DTD/svg11.dtd"><svg t="1673179317130" class="icon" viewBox="0 0 1024 1024" version="1.1" xmlns="http://www.w3.org/2000/svg" p-id="2325" xmlns:xlink="http://www.w3.org/1999/xlink" width="128" height="128"><path d="M837.802667 846.336a8.533333 8.533333 0 0 1-5.973334-2.56L512 524.117333 192.170667 843.946667a8.533333 8.533333 0 0 1-12.117334-12.117334L499.882667 512 180.053333 192.170667a8.533333 8.533333 0 1 1 12.117334-12.117334L512 499.882667l319.829333-319.829334a8.533333 8.533333 0 0 1 5.973334-2.56 8.533333 8.533333 0 0 1 5.973333 14.506667L524.117333 512l319.829334 319.829333a8.533333 8.533333 0 0 1-5.973334 14.506667z" p-id="2326"></path><path d="M186.197333 186.197333l313.685334 313.685334 12.117333 12.117333 12.117333-12.117333 313.685334-313.685334-313.685334 313.685334L512 512l12.117333 12.117333 313.685334 313.685334-313.685334-313.685334L512 512l-12.117333 12.117333-313.685334 313.685334 313.685334-313.685334L512 512l-12.117333-12.117333-313.685334-313.685334m651.605334-17.066666a17.066667 17.066667 0 0 0-12.117334 4.949333L512 487.936 198.314667 174.08a17.066667 17.066667 0 1 0-24.064 24.064L487.936 512 174.08 825.685333a17.066667 17.066667 0 0 0 24.064 24.064L512 536.064 825.685333 849.92a17.066667 17.066667 0 0 0 24.064-24.064L536.064 512 849.92 198.314667a17.066667 17.066667 0 0 0-12.117333-29.184z" p-id="2327"></path></svg>