<?xml version="1.0" standalone="no"?><!DOCTYPE svg PUBLIC "-//W3C//DTD SVG 1.1//EN" "http://www.w3.org/Graphics/SVG/1.1/DTD/svg11.dtd"><svg t="1673179065760" class="icon" viewBox="0 0 1024 1024" version="1.1" xmlns="http://www.w3.org/2000/svg" p-id="2447" xmlns:xlink="http://www.w3.org/1999/xlink" width="128" height="128"><path d="M428 735.99999969L428 735.99999969 428 735.99999969zM512 32C247.99999998 32 32 247.99999998 32 512s216.00000001 480 480 480 480-216.00000001 480-480S776.00000002 32 512 32zM512 932C279.99999969 932 92 744.00000031 92 512S279.99999969 92 512 92 932 279.99999969 932 512 744.00000031 932 512 932zM681.704 297.03360031l48.0828 48.0828-384.6624 384.6624-48.0828-48.0828 384.6624-384.6624ZM297.03360031 342.296l48.0828-48.0828 384.6624 384.6624-48.0828 48.0828-384.6624-384.6624Z" p-id="2448"></path></svg>